<!--<svg xmlns="http://www.w3.org/2000/svg" width="24" height="24" viewBox="0 0 256 256">-->
<!--    <path fill="currentColor" d="M138 128a10 10 0 1 1-10-10a10 10 0 0 1 10 10Zm-54-10a10 10 0 1 0 10 10a10 10 0 0 0-10-10Zm88 0a10 10 0 1 0 10 10a10 10 0 0 0-10-10Zm58 10a102 102 0 0 1-150.69 89.65l-34.87 11.62a14 14 0 0 1-17.71-17.71l11.62-34.87A102 102 0 1 1 230 128Zm-12 0a90 90 0 1 0-167.92 45.06a6 6 0 0 1 .5 4.91l-12.46 37.38a2 2 0 0 0 2.53 2.53L78 205.42a6.2 6.2 0 0 1 1.9-.31a6.09 6.09 0 0 1 3 .81A90 90 0 0 0 218 128Z"/>-->
<!--</svg>-->

<svg viewBox="0 0 1024 1024" xmlns="http://www.w3.org/2000/svg" fill="#000000">
    <g id="SVGRepo_bgCarrier" stroke-width="0"/>
    <g id="SVGRepo_tracerCarrier" stroke-linecap="round" stroke-linejoin="round"/>
    <g id="SVGRepo_iconCarrier">
        <path fill="#000000" d="m174.72 855.68 135.296-45.12 23.68 11.84C388.096 849.536 448.576 864 512 864c211.84 0 384-166.784 384-352S723.84 160 512 160 128 326.784 128 512c0 69.12 24.96 139.264 70.848 199.232l22.08 28.8-46.272 115.584zm-45.248 82.56A32 32 0 0 1 89.6 896l58.368-145.92C94.72 680.32 64 596.864 64 512 64 299.904 256 96 512 96s448 203.904 448 416-192 416-448 416a461.056 461.056 0 0 1-206.912-48.384l-175.616 58.56z"/>
        <path fill="#000000" d="M512 563.2a51.2 51.2 0 1 1 0-102.4 51.2 51.2 0 0 1 0 102.4zm192 0a51.2 51.2 0 1 1 0-102.4 51.2 51.2 0 0 1 0 102.4zm-384 0a51.2 51.2 0 1 1 0-102.4 51.2 51.2 0 0 1 0 102.4z"/>
    </g>
</svg>